Coordinates
version=1
nRows=28
nColumns=33
inDegrees=yes

Units are S.I. units (second, meters, Newtons, ...)
Angles are in degrees.

endheader
time	ground_thorax_rot_x	ground_thorax_rot_y	ground_thorax_rot_z	ground_thorax_tx	ground_thorax_ty	ground_thorax_tz	clav_prot_r	clav_elev_r	scapula_abduction_r	scapula_elevation_r	scapula_upward_rot_r	scapula_winging_r	shoulder_elv_r	plane_of_elev_r	axial_rot_r	elbow_flexion_r	pro_sup_r	wrist_flex_r	wrist_dev_r	clav_prot_l	clav_elev_l	scapula_abduction_l	scapula_elevation_l	scapula_upward_rot_l	scapula_winging_l	shoulder_elv_l	plane_of_elev_l	axial_rot_l	elbow_flexion_l	pro_sup_l	wrist_flex_l	wrist_dev_l	
7.4800	27.086495	31.431509	42.005529	3.501885	769.483847	-36.027312	12.216408	35.646347	25.683404	45.000000	-45.000000	-3679.286236	-2448.784448	22.381966	180.000000	1805.532801	-172.765754	12.595100	14.201392	-12.622555	-45.000000	-34.854427	45.000000	-45.000000	-1700.093860	-1365.755987	23.410528	21.637170	1789.412614	41.812084	12.436452	-15.357870	
7.4900	27.242475	31.300243	41.721654	0.585650	770.363136	-36.166651	12.201115	35.616971	25.628510	45.000000	-45.000000	-3679.439933	-2448.723230	22.407782	180.000000	1805.539173	-172.681345	12.642727	14.277071	-12.509516	-45.000000	-34.951852	45.000000	-45.000000	-1699.964225	-1365.660037	23.431422	21.673716	1789.397210	41.857304	12.494578	-15.430022	
7.5000	27.393791	31.164792	41.439846	-2.354564	771.277111	-36.300536	12.189140	35.582229	25.570312	45.000000	-45.000000	-3679.589537	-2448.662064	22.428621	180.000000	1805.550051	-172.599345	12.685616	14.347996	-12.396090	-45.000000	-35.049737	45.000000	-45.000000	-1699.836799	-1365.557993	23.449293	21.697165	1789.380140	41.896503	12.551160	-15.498211	
7.5100	27.544721	31.021670	41.157608	-5.313731	772.226224	-36.429003	12.172346	35.552342	25.517882	45.000000	-45.000000	-3679.741870	-2448.604321	22.448304	180.000000	1805.566263	-172.516883	12.725144	14.415730	-12.286099	-45.000000	-35.148122	45.000000	-45.000000	-1699.706082	-1365.456176	23.467275	21.707183	1789.364965	41.931291	12.607932	-15.566624	
7.5200	27.691764	30.872262	40.877876	-8.287543	773.210737	-36.551956	12.158016	35.517680	25.462806	45.000000	-45.000000	-3679.889004	-2448.542338	22.467091	180.000000	1805.586821	-172.431793	12.761659	14.477686	-12.174194	-45.000000	-35.250000	45.000000	-45.000000	-1699.576415	-1365.350534	23.481389	21.703904	1789.349299	41.963776	12.662306	-15.632285	
7.5300	27.839115	30.717005	40.599553	-11.271993	774.230574	-36.669080	12.140976	35.486246	25.409667	45.000000	-45.000000	-3680.040521	-2448.477585	22.488488	180.000000	1805.606837	-172.342876	12.798033	14.533896	-12.062397	-45.000000	-35.352929	45.000000	-45.000000	-1699.443247	-1365.246136	23.494028	21.688869	1789.336653	41.995276	12.715252	-15.698469	
7.5400	27.981538	30.560466	40.327001	-14.263361	775.285446	-36.779862	12.127895	35.448956	25.350646	45.000000	-45.000000	-3680.190165	-2448.405362	22.508069	180.000000	1805.623032	-172.250595	12.835258	14.582096	-11.945692	-45.000000	-35.460207	45.000000	-45.000000	-1699.311629	-1365.138533	23.502022	21.662259	1789.326100	42.027330	12.764025	-15.762575	
7.5500	28.130942	30.397618	40.048700	-17.257399	776.374880	-36.883700	12.108544	35.420421	25.294497	45.000000	-45.000000	-3680.350029	-2448.327007	22.536371	180.000000	1805.634627	-172.156323	12.874757	14.628821	-11.830540	-45.000000	-35.567989	45.000000	-45.000000	-1699.173570	-1365.041580	23.514282	21.630647	1789.323003	42.060243	12.813493	-15.833139	
7.5600	28.280781	30.230501	39.767823	-20.249601	777.498643	-36.980078	12.093336	35.387946	25.232961	45.000000	-45.000000	-3680.510017	-2448.239823	22.568079	180.000000	1805.638542	-172.064319	12.916609	14.670914	-11.713168	-45.000000	-35.675912	45.000000	-45.000000	-1699.036656	-1364.944572	23.526872	21.596437	1789.324904	42.095218	12.859757	-15.905655	
7.5700	28.425046	30.063292	39.493847	-23.234603	778.656926	-37.068702	12.081560	35.354150	25.168540	45.000000	-45.000000	-3680.672669	-2448.149451	22.600381	180.000000	1805.639590	-171.979353	12.959664	14.707455	-11.593359	-45.000000	-35.782855	45.000000	-45.000000	-1698.900343	-1364.843996	23.538247	21.556581	1789.328596	42.133959	12.902358	-15.979346	
7.5800	28.555886	29.897246	39.234323	-26.206749	779.850754	-37.149588	12.075379	35.314076	25.104312	45.000000	-45.000000	-3680.832124	-2448.061290	22.624569	180.000000	1805.640386	-171.906154	13.003384	14.737041	-11.469610	-45.000000	-35.892031	45.000000	-45.000000	-1698.766371	-1364.731966	23.543660	21.508540	1789.330627	42.178125	12.939648	-16.051831	
7.5900	28.675669	29.731361	38.986997	-29.159550	781.081961	-37.222944	12.071566	35.272637	25.042292	45.000000	-45.000000	-3680.991395	-2447.977020	22.644835	180.000000	1805.644011	-171.848351	13.047184	14.762965	-11.343216	-45.000000	-36.004372	45.000000	-45.000000	-1698.633615	-1364.612761	23.545327	21.455118	1789.329086	42.228750	12.974120	-16.125712	
7.6000	28.789294	29.561014	38.745366	-32.086866	782.353306	-37.289103	12.068155	35.231128	24.989045	45.000000	-45.000000	-3681.151722	-2447.897564	22.661753	180.000000	1805.649685	-171.809256	13.092290	14.786711	-11.217192	-45.000000	-36.118598	45.000000	-45.000000	-1698.501596	-1364.488850	23.545330	21.402907	1789.326682	42.285149	13.006387	-16.203542	
7.6100	28.898357	29.387860	38.507895	-34.982748	783.667962	-37.348359	12.065985	35.189484	24.939337	45.000000	-45.000000	-3681.312635	-2447.819228	22.679687	180.000000	1805.656987	-171.790892	13.139007	14.809522	-11.089673	-45.000000	-36.236591	45.000000	-45.000000	-1698.371573	-1364.362607	23.544870	21.355494	1789.322727	42.346079	13.037046	-16.285382	
7.6200	29.008076	29.209545	38.267780	-37.842780	785.029096	-37.401038	12.062459	35.150673	24.895260	45.000000	-45.000000	-3681.476552	-2447.740688	22.701758	180.000000	1805.663186	-171.793895	13.189349	14.831416	-10.963145	-45.000000	-36.355905	45.000000	-45.000000	-1698.241707	-1364.238157	23.546853	21.315824	1789.320840	42.408650	13.066558	-16.372864	
7.6300	29.117759	29.029324	38.024244	-40.663497	786.439196	-37.447411	12.061595	35.110745	24.847171	45.000000	-45.000000	-3681.640689	-2447.657129	22.730192	180.000000	1805.666268	-171.817334	13.244160	14.851142	-10.835065	-45.000000	-36.476090	45.000000	-45.000000	-1698.115679	-1364.114803	23.552090	21.283391	1789.319224	42.470028	13.094710	-16.463458	
7.6400	29.228868	28.845465	37.777164	-43.443253	787.899734	-37.487930	12.060772	35.072043	24.800662	45.000000	-45.000000	-3681.807910	-2447.570595	22.763385	180.000000	1805.665596	-171.858817	13.305659	14.867517	-10.707957	-45.000000	-36.593277	45.000000	-45.000000	-1697.990439	-1363.994013	23.561293	21.257768	1789.320436	42.526193	13.122162	-16.557919	
7.6500	29.335228	28.661396	37.532747	-46.181273	789.411019	-37.523213	12.063125	35.030234	24.750772	45.000000	-45.000000	-3681.973141	-2447.481670	22.797276	180.000000	1805.661859	-171.914606	13.374526	14.878932	-10.578016	-45.000000	-36.711287	45.000000	-45.000000	-1697.868992	-1363.871538	23.571201	21.235550	1789.321172	42.574041	13.148539	-16.652449	
7.6600	29.441808	28.473182	37.287925	-48.877714	790.972356	-37.554215	12.061318	34.994027	24.709491	45.000000	-45.000000	-3682.142779	-2447.395627	22.832545	180.000000	1805.658159	-171.979956	13.452675	14.887564	-10.450150	-45.000000	-36.828868	45.000000	-45.000000	-1697.743399	-1363.754436	23.583603	21.219197	1789.324607	42.609636	13.177329	-16.751284	
7.6700	29.548091	28.280171	37.038948	-51.532297	792.582412	-37.582004	12.058151	34.959110	24.673906	45.000000	-45.000000	-3682.314381	-2447.311408	22.868043	180.000000	1805.652167	-172.051008	13.541710	14.894073	-10.323306	-45.000000	-36.948823	45.000000	-45.000000	-1697.618500	-1363.641206	23.599312	21.208792	1789.329486	42.630191	13.209398	-16.853019	
7.6800	29.657515	28.080256	36.784365	-54.144531	794.239512	-37.607846	12.049901	34.930017	24.650188	45.000000	-45.000000	-3682.491994	-2447.229936	22.905379	180.000000	1805.646951	-172.124343	13.642482	14.899540	-10.200619	-45.000000	-37.069520	45.000000	-45.000000	-1697.490401	-1363.535737	23.619335	21.206022	1789.338780	42.632899	13.246223	-16.959957	
7.6900	29.765580	27.876521	36.526323	-56.713445	795.941986	-37.633042	12.041714	34.900102	24.630561	45.000000	-45.000000	-3682.669599	-2447.147476	22.942540	180.000000	1805.641275	-172.197934	13.754806	14.901695	-10.079486	-45.000000	-37.193073	45.000000	-45.000000	-1697.365470	-1363.431203	23.641179	21.208416	1789.349602	42.616868	13.285803	-17.067250	
7.7000	29.873305	27.668584	36.268814	-59.237988	797.688117	-37.658970	12.031370	34.873739	24.620727	45.000000	-45.000000	-3682.848955	-2447.065693	22.978490	180.000000	1805.640650	-172.270320	13.878652	14.898912	-9.963081	-45.000000	-37.316344	45.000000	-45.000000	-1697.241010	-1363.327986	23.663184	21.219322	1789.362935	42.581721	13.327855	-17.175252	
7.7100	29.974828	27.460958	36.015351	-61.717243	799.476439	-37.686891	12.022962	34.843641	24.611260	45.000000	-45.000000	-3683.024307	-2446.981024	23.011046	180.000000	1805.643433	-172.341185	14.012669	14.889215	-9.846358	-45.000000	-37.442160	45.000000	-45.000000	-1697.122621	-1363.219653	23.684106	21.237286	1789.374482	42.528952	13.370173	-17.278951	
7.7200	30.071437	27.253036	35.767895	-64.150397	801.305382	-37.717955	12.015547	34.813356	24.604717	45.000000	-45.000000	-3683.196723	-2446.895491	23.041120	180.000000	1805.651950	-172.410775	14.156239	14.871551	-9.733171	-45.000000	-37.567191	45.000000	-45.000000	-1697.008649	-1363.106848	23.702381	21.263063	1789.385284	42.460219	13.412043	-17.379058	
7.7300	30.161721	27.045950	35.526629	-66.536887	803.173406	-37.753094	12.010154	34.780854	24.599603	45.000000	-45.000000	-3683.364817	-2446.808924	23.067895	180.000000	1805.665006	-172.480064	14.308690	14.845465	-9.621750	-45.000000	-37.692886	45.000000	-45.000000	-1696.900791	-1362.988551	23.718311	21.299703	1789.393557	42.378445	13.452409	-17.474702	
7.7400	30.250070	26.835872	35.287785	-68.875967	805.078720	-37.793020	12.003692	34.751993	24.604333	45.000000	-45.000000	-3683.533689	-2446.724953	23.093180	180.000000	1805.682561	-172.550528	14.470752	14.812507	-9.516438	-45.000000	-37.815587	45.000000	-45.000000	-1696.796682	-1362.871973	23.735319	21.353211	1789.403477	42.286235	13.492373	-17.571391	
7.7500	30.338979	26.622927	35.047530	-71.166925	807.019500	-37.838192	11.997861	34.721622	24.612341	45.000000	-45.000000	-3683.702932	-2446.641551	23.118658	180.000000	1805.697833	-172.623653	14.642278	14.773692	-9.414207	-45.000000	-37.937267	45.000000	-45.000000	-1696.696446	-1362.755856	23.753877	21.418402	1789.413812	42.187344	13.530756	-17.669450	
